<mxfile host="65bd71144e">
    <diagram id="yOcKEqTUfhUL5uFn0N3o" name="Page-1">
        <mxGraphModel dx="873" dy="691" grid="1" gridSize="10" guides="1" tooltips="1" connect="1" arrows="1" fold="1" page="1" pageScale="1" pageWidth="850" pageHeight="1100" background="none" math="0" shadow="0">
            <root>
                <mxCell id="0"/>
                <mxCell id="1" parent="0"/>
                <mxCell id="2" value="Testbench" style="rounded=1;whiteSpace=wrap;html=1;arcSize=4;fillColor=#dae8fc;strokeColor=#6c8ebf;verticalAlign=top;fontSize=16;" vertex="1" parent="1">
                    <mxGeometry x="40" y="70" width="840" height="520" as="geometry"/>
                </mxCell>
                <mxCell id="4" value="&lt;span&gt;AXI-MM Leader App&lt;/span&gt;" style="rounded=1;whiteSpace=wrap;html=1;arcSize=8;fillColor=#ffe6cc;strokeColor=#d79b00;horizontal=1;verticalAlign=top;fontSize=16;" vertex="1" parent="1">
                    <mxGeometry x="60" y="110" width="480" height="200" as="geometry"/>
                </mxCell>
                <mxCell id="12" value="AXI-MM Pattern&lt;div&gt;Checker TOP&lt;/div&gt;" style="rounded=1;whiteSpace=wrap;html=1;arcSize=10;fillColor=#ffe6cc;strokeColor=#d79b00;verticalAlign=top;fontSize=16;" vertex="1" parent="1">
                    <mxGeometry x="60" y="330" width="230" height="170" as="geometry"/>
                </mxCell>
                <mxCell id="13" value="AXI-MM CSR" style="rounded=1;whiteSpace=wrap;html=1;arcSize=10;fillColor=#ffe6cc;strokeColor=#d79b00;verticalAlign=top;fontSize=16;" vertex="1" parent="1">
                    <mxGeometry x="310" y="330" width="230" height="170" as="geometry"/>
                </mxCell>
                <mxCell id="14" value="MM CSR&lt;div&gt;Control&lt;/div&gt;" style="rounded=1;whiteSpace=wrap;html=1;arcSize=11;fillColor=#fff2cc;strokeColor=#d6b656;verticalAlign=top;fontSize=16;" vertex="1" parent="1">
                    <mxGeometry x="330" y="370" width="190" height="110" as="geometry"/>
                </mxCell>
                <mxCell id="15" value="AXI Pattern Generator Top" style="rounded=1;whiteSpace=wrap;html=1;arcSize=9;fillColor=#f8cecc;strokeColor=#b85450;verticalAlign=top;fontSize=16;" vertex="1" parent="1">
                    <mxGeometry x="80" y="150" width="440" height="140" as="geometry"/>
                </mxCell>
                <mxCell id="5" value="AXI-MM&lt;div&gt;Incr&lt;/div&gt;&lt;div&gt;Generator&lt;/div&gt;" style="rounded=1;whiteSpace=wrap;html=1;arcSize=11;fillColor=#fff2cc;strokeColor=#d6b656;verticalAlign=top;fontSize=16;" vertex="1" parent="1">
                    <mxGeometry x="110" y="190" width="110" height="80" as="geometry"/>
                </mxCell>
                <mxCell id="10" value="AXI-MM&lt;div&gt;Write&lt;/div&gt;&lt;div&gt;Control&lt;/div&gt;" style="rounded=1;whiteSpace=wrap;html=1;arcSize=11;fillColor=#fff2cc;strokeColor=#d6b656;verticalAlign=top;fontSize=16;" vertex="1" parent="1">
                    <mxGeometry x="245" y="190" width="110" height="80" as="geometry"/>
                </mxCell>
                <mxCell id="11" value="AXI-MM&lt;div&gt;Random&lt;/div&gt;&lt;div&gt;Generator&lt;/div&gt;" style="rounded=1;whiteSpace=wrap;html=1;arcSize=11;fillColor=#fff2cc;strokeColor=#d6b656;verticalAlign=top;fontSize=16;" vertex="1" parent="1">
                    <mxGeometry x="380" y="190" width="110" height="80" as="geometry"/>
                </mxCell>
                <mxCell id="16" value="&lt;span&gt;AXI-MM Follower App&lt;/span&gt;" style="rounded=1;whiteSpace=wrap;html=1;arcSize=31;fillColor=#ffe6cc;strokeColor=#d79b00;horizontal=1;verticalAlign=top;fontSize=16;" vertex="1" parent="1">
                    <mxGeometry x="60" y="525" width="480" height="50" as="geometry"/>
                </mxCell>
                <mxCell id="17" value="async&lt;div&gt;FIFO&lt;/div&gt;" style="rounded=1;whiteSpace=wrap;html=1;arcSize=9;fillColor=#f8cecc;strokeColor=#b85450;verticalAlign=top;fontSize=16;" vertex="1" parent="1">
                    <mxGeometry x="100" y="400" width="80" height="60" as="geometry"/>
                </mxCell>
                <mxCell id="18" value="&lt;span&gt;AXI-MM Wrapper TOP&lt;/span&gt;" style="rounded=1;whiteSpace=wrap;html=1;arcSize=8;fillColor=#ffe6cc;strokeColor=#d79b00;horizontal=1;verticalAlign=top;fontSize=16;" vertex="1" parent="1">
                    <mxGeometry x="560" y="110" width="300" height="220" as="geometry"/>
                </mxCell>
                <mxCell id="19" value="&lt;span&gt;AIB TOP&lt;/span&gt;" style="rounded=1;whiteSpace=wrap;html=1;arcSize=8;fillColor=#ffe6cc;strokeColor=#d79b00;horizontal=1;verticalAlign=top;fontSize=16;" vertex="1" parent="1">
                    <mxGeometry x="560" y="350" width="300" height="225" as="geometry"/>
                </mxCell>
                <mxCell id="20" value="AXI MM Leader" style="rounded=1;whiteSpace=wrap;html=1;arcSize=9;fillColor=#f8cecc;strokeColor=#b85450;verticalAlign=top;fontSize=16;" vertex="1" parent="1">
                    <mxGeometry x="580" y="150" width="260" height="70" as="geometry"/>
                </mxCell>
                <mxCell id="21" value="AXI MM Follower" style="rounded=1;whiteSpace=wrap;html=1;arcSize=9;fillColor=#f8cecc;strokeColor=#b85450;verticalAlign=top;fontSize=16;" vertex="1" parent="1">
                    <mxGeometry x="580" y="240" width="260" height="70" as="geometry"/>
                </mxCell>
                <mxCell id="22" value="AIB PHY TOP&lt;div&gt;Leader&lt;/div&gt;" style="rounded=1;whiteSpace=wrap;html=1;arcSize=9;fillColor=#f8cecc;strokeColor=#b85450;verticalAlign=top;fontSize=16;" vertex="1" parent="1">
                    <mxGeometry x="580" y="390" width="180" height="70" as="geometry"/>
                </mxCell>
                <mxCell id="23" value="AIB PHY TOP&lt;div&gt;Follower&lt;/div&gt;" style="rounded=1;whiteSpace=wrap;html=1;arcSize=9;fillColor=#f8cecc;strokeColor=#b85450;verticalAlign=top;fontSize=16;" vertex="1" parent="1">
                    <mxGeometry x="580" y="480" width="180" height="70" as="geometry"/>
                </mxCell>
                <mxCell id="24" value="EMIB" style="rounded=1;whiteSpace=wrap;html=1;arcSize=9;fillColor=#f8cecc;strokeColor=#b85450;verticalAlign=top;fontSize=16;" vertex="1" parent="1">
                    <mxGeometry x="780" y="390" width="60" height="160" as="geometry"/>
                </mxCell>
            </root>
        </mxGraphModel>
    </diagram>
</mxfile>